<?xml version="1.0" encoding="UTF-8"?>
<svg width="84px" height="84px" viewBox="0 0 84 84" version="1.1" xmlns="http://www.w3.org/2000/svg" xmlns:xlink="http://www.w3.org/1999/xlink">
    <title>icon-certificate</title>
    <g id="icon-certificate" stroke="none" stroke-width="1" fill="none" fill-rule="evenodd">
        <g id="certificate" transform="translate(15.000000, 13.000000)" fill-rule="nonzero">
            <path d="M9.13496856,15.657754 C8.68962289,15.657754 8.25510717,15.4296727 8.01109412,15.0180956 C7.64411551,14.3988184 7.84863187,13.5986028 8.46790909,13.2303455 L24.336547,3.82015273 C24.9564635,3.45317412 25.7566791,3.65705112 26.1249365,4.27760706 C26.4919151,4.89688428 26.2873987,5.69709989 25.6681215,6.06535722 L9.79947059,15.4755369 C9.59050481,15.5991418 9.36114481,15.657754 9.13496856,15.657754 Z" id="Path" fill="#B3B3B3"></path>
            <path d="M45.6671705,15.657754 C45.4409942,15.657754 45.2116342,15.5991418 45.0026554,15.4755369 L29.1340175,6.06534417 C28.5147403,5.69708684 28.310224,4.89687123 28.6772026,4.27759401 C29.0454599,3.65703807 29.8463149,3.45316107 30.4655921,3.82013968 L46.3342299,13.2303324 C46.9535072,13.5985897 47.1580235,14.3988053 46.7910449,15.0180826 C46.5470319,15.4296727 46.1125161,15.657754 45.6671705,15.657754 Z" id="Path" fill="#B3B3B3"></path>
            <path d="M53.4973262,52.1925134 L1.30481283,52.1925134 C0.584229947,52.1925134 0,51.6089097 0,50.8877005 L0,14.3529412 C0,13.631732 0.584229947,13.0481283 1.30481283,13.0481283 L53.4973262,13.0481283 C54.2179091,13.0481283 54.802139,13.631732 54.802139,14.3529412 L54.802139,50.8877005 C54.802139,51.6089097 54.2179091,52.1925134 53.4973262,52.1925134 Z" id="Path" fill="#00B6C7"></path>
            <circle id="Oval" fill="#003561" cx="27.4010695" cy="3.9144385" r="3.9144385"></circle>
            <rect id="Rectangle" fill="#FFFFFF" x="3.9144385" y="16.9625668" width="46.973262" height="31.315508"></rect>
            <path d="M32.6203209,28.7058824 L11.7433155,28.7058824 C11.0227326,28.7058824 10.4385027,28.1222787 10.4385027,27.4010695 C10.4385027,26.6798603 11.0227326,26.0962567 11.7433155,26.0962567 L32.6203209,26.0962567 C33.3409037,26.0962567 33.9251337,26.6798603 33.9251337,27.4010695 C33.9251337,28.1222787 33.3409037,28.7058824 32.6203209,28.7058824 Z" id="Path" fill="#003561"></path>
            <path d="M27.4010695,39.144385 L11.7433155,39.144385 C11.0227326,39.144385 10.4385027,38.5607814 10.4385027,37.8395722 C10.4385027,37.118363 11.0227326,36.5347594 11.7433155,36.5347594 L27.4010695,36.5347594 C28.1216524,36.5347594 28.7058824,37.118363 28.7058824,37.8395722 C28.7058824,38.5607814 28.1216524,39.144385 27.4010695,39.144385 Z" id="Path" fill="#003561"></path>
            <polygon id="Path" fill="#F58331" points="56.1069519 35.5562802 56.1069519 57.4117647 48.2780749 53.4973262 40.4491979 57.4117647 40.4491979 35.5562802"></polygon>
            <path d="M48.2780749,26.0962567 C41.8024323,26.0962567 36.5347594,31.364569 36.5347594,37.8395722 C36.5347594,44.3145754 41.8024323,49.5828877 48.2780749,49.5828877 C54.7537174,49.5828877 60.0213904,44.3145754 60.0213904,37.8395722 C60.0213904,31.364569 54.7537174,26.0962567 48.2780749,26.0962567 Z" id="Path" fill="#0073B9"></path>
            <circle id="Oval" fill="#00B6C7" cx="48.2780749" cy="37.8395722" r="5.21925134"></circle>
        </g>
    </g>
</svg>