<svg width="746" height="154" viewBox="0 0 746 154" fill="none" xmlns="http://www.w3.org/2000/svg">
<path d="M194.003 18.5621V33.1721H216.003L209.763 44.3321H194.003V67.0821H180.073V7.4021H217.353V18.5621H194.003Z" fill="white"/>
<path d="M350.003 104.732V120.002C350.003 123.722 350.263 126.322 354.503 126.322C355.92 126.292 357.322 126.029 358.653 125.542L359.343 136.352C356.134 137.254 352.817 137.721 349.483 137.742C338.413 137.742 336.073 130.992 336.073 121.212V104.732H330.073V94.2721H336.073V85.2721L350.003 77.1421V94.2721H359.433V104.732H350.003Z" fill="white"/>
<path d="M475.893 88.2421L476.083 137.012H462.003V88.2421H446.573V77.1421H491.523L485.323 88.2421H475.893Z" fill="white"/>
<path d="M488.873 67.0821V15.5321L502.713 7.4021V67.0821H488.873Z" fill="white"/>
<path d="M731.233 67.0921V44.6821C731.233 39.4921 730.543 34.9921 724.753 34.9921C718.963 34.9921 717.133 39.8421 717.133 46.1521V67.0921H703.293V15.5421L717.133 7.4021V21.5821C717.133 25.9121 717.053 30.5821 717.053 30.5821C719.213 26.7721 723.283 23.6621 729.593 23.6621C741.963 23.6621 745.163 31.5321 745.163 41.9121V67.0921H731.233Z" fill="white"/>
<path fill-rule="evenodd" clip-rule="evenodd" d="M222.193 12.3321C222.193 16.6521 225.393 19.5121 230.063 19.5121C234.743 19.5121 237.943 16.5721 237.943 12.3321C237.943 8.0921 234.733 5.1521 230.063 5.1521C225.393 5.1521 222.193 8.0121 222.193 12.3321ZM223.143 24.4421V67.0821H237.003V24.4421H223.143Z" fill="white"/>
<path d="M270.723 67.0821V44.8521C270.723 39.2321 269.853 34.9921 264.143 34.9921C258.143 34.9921 256.533 39.8421 256.533 45.9921V67.0921H242.693V24.4421H256.533L256.453 30.5821H256.623C259.162 26.1724 263.917 23.514 269.003 23.6621C281.373 23.6621 284.573 31.6621 284.573 41.9121V67.0821H270.723Z" fill="white"/>
<path fill-rule="evenodd" clip-rule="evenodd" d="M316.003 62.5921L316.303 67.0821L329.523 67.0621V43.0621C329.523 29.2221 321.843 23.6821 308.523 23.6821C302.192 23.7302 295.954 25.2069 290.273 28.0021L293.903 37.0021C297.863 34.6426 302.356 33.3249 306.963 33.1721C312.503 33.1721 315.703 35.5021 315.703 40.0021V41.0021L305.003 41.3921C297.103 41.7421 288.363 44.8921 288.363 54.4121C288.363 63.9321 296.323 68.0021 303.853 68.0021C308.499 68.0606 312.938 66.0841 316.003 62.5921ZM302.253 53.9421C302.253 50.7521 304.763 48.9221 309.003 48.7521L315.833 48.3221V55.3221C314.28 57.7348 311.613 59.1984 308.743 59.2121C304.933 59.2121 302.253 57.1321 302.253 53.9421Z" fill="white"/>
<path d="M363.273 67.0821V44.8521C363.273 39.2321 362.413 34.9921 356.703 34.9921C350.703 34.9921 349.083 39.8421 349.083 45.9921V67.0921H335.243V24.4421H349.083L349.003 30.5821H349.173C351.711 26.1772 356.462 23.5199 361.543 23.6621C373.913 23.6621 377.113 31.6621 377.113 41.9121V67.0821H363.273Z" fill="white"/>
<path d="M403.843 68.0021C392.163 68.0021 381.353 60.0021 381.353 45.8521C381.353 31.7021 392.353 23.6221 404.013 23.6221C414.913 23.6221 419.843 28.1221 419.843 28.1221L416.843 38.5821C413.717 36.0991 409.836 34.7584 405.843 34.7821C399.963 34.7821 395.283 38.8421 395.283 45.5921C395.283 52.3421 399.523 56.5921 406.013 56.5921C409.994 56.5292 413.823 55.059 416.823 52.4421L420.113 62.9021C419.673 63.2821 415.173 68.0021 403.843 68.0021Z" fill="white"/>
<path fill-rule="evenodd" clip-rule="evenodd" d="M422.523 12.3321C422.523 16.6521 425.723 19.5121 430.393 19.5121C435.063 19.5121 438.273 16.5721 438.273 12.3321C438.273 8.0921 435.063 5.1521 430.393 5.1521C425.723 5.1521 422.523 8.0121 422.523 12.3321ZM423.473 24.4421V67.0821H437.313V24.4421H423.473Z" fill="white"/>
<path fill-rule="evenodd" clip-rule="evenodd" d="M469.323 62.5921L469.583 67.0821L482.793 67.0621V43.0621C482.793 29.2221 475.113 23.6821 461.793 23.6821C455.462 23.7302 449.224 25.2069 443.543 28.0021L447.173 37.0021C451.146 34.6393 455.653 33.3217 460.273 33.1721C465.803 33.1721 469.003 35.5021 469.003 40.0021V41.0021L458.253 41.3921C450.373 41.7421 441.643 44.9321 441.643 54.4521C441.643 63.9721 449.603 68.0421 457.123 68.0421C461.792 68.0999 466.251 66.1079 469.323 62.5921ZM455.483 53.9421C455.483 50.7521 457.993 48.9221 462.223 48.7521L469.063 48.3221V55.3221C467.506 57.7306 464.841 59.193 461.973 59.2121C458.163 59.2121 455.483 57.1321 455.483 53.9421Z" fill="white"/>
<path d="M543.003 68.1221C525.443 68.1221 511.693 56.5321 511.693 37.3321C511.693 18.1321 525.623 6.5321 543.003 6.5321C555.293 6.5321 562.003 11.6421 563.513 13.2821L559.183 24.8721C558.063 23.4021 551.653 18.6421 543.783 18.6421C533.663 18.6421 525.883 25.3921 525.883 37.0721C525.883 48.7521 534.013 55.4121 543.783 55.4121C551.223 55.4121 556.583 52.4721 559.873 49.0921L564.553 60.0021C561.533 63.1021 555.213 68.1221 543.003 68.1221Z" fill="white"/>
<path fill-rule="evenodd" clip-rule="evenodd" d="M565.593 45.8521C565.593 59.6121 575.803 68.0021 589.293 68.0021C602.793 68.0021 612.913 59.6021 612.913 45.8521C612.913 32.1021 602.783 23.6221 589.293 23.6221C575.803 23.6221 565.593 32.0921 565.593 45.8521ZM579.603 45.5921C579.603 39.2821 583.153 34.5221 589.293 34.5221V34.5621C595.353 34.5621 599.003 39.2621 599.003 45.6321C599.003 52.0021 595.433 56.6621 589.293 56.6621C583.153 56.6621 579.603 51.9021 579.603 45.5921Z" fill="white"/>
<path fill-rule="evenodd" clip-rule="evenodd" d="M643.273 62.5921L643.533 67.0821L656.743 67.0621V43.0621C656.743 29.2221 649.063 23.6821 635.743 23.6821C629.412 23.7302 623.174 25.2069 617.493 28.0021L621.123 37.0021C625.083 34.6426 629.576 33.3249 634.183 33.1721C639.723 33.1721 642.923 35.5021 642.923 40.0021V41.0021L632.193 41.3921C624.323 41.7421 615.593 44.9321 615.593 54.4521C615.593 63.9721 623.543 68.0421 631.073 68.0421C635.742 68.0999 640.201 66.1079 643.273 62.5921ZM629.433 53.9421C629.433 50.7521 631.933 48.9221 636.173 48.7521L643.013 48.3221V55.3221C641.453 57.7322 638.784 59.1945 635.913 59.2121C632.113 59.2121 629.433 57.1321 629.433 53.9421Z" fill="white"/>
<path d="M683.493 68.0021C671.813 68.0021 661.003 60.0021 661.003 45.8521C661.003 31.7021 672.003 23.6221 683.663 23.6221C694.563 23.6221 699.493 28.1221 699.493 28.1221L696.493 38.5821C693.367 36.0991 689.486 34.7584 685.493 34.7821C679.613 34.7821 674.933 38.8421 674.933 45.5921C674.933 52.3421 679.173 56.5921 685.663 56.5921C689.644 56.5292 693.473 55.059 696.473 52.4421L699.763 62.9021C699.323 63.2821 694.823 68.0021 683.493 68.0021Z" fill="white"/>
<path d="M231.003 136.822L228.663 96.1721H228.493L215.693 136.822H204.633L191.753 96.1721H191.493L189.323 136.822H175.573L180.073 77.1421H197.713L210.173 116.412H210.343L222.633 77.1421H240.363L244.773 136.822H231.003Z" fill="white"/>
<path fill-rule="evenodd" clip-rule="evenodd" d="M275.303 132.322L275.563 136.822L288.823 136.772V112.772C288.823 98.9321 281.143 93.4021 267.823 93.4021C261.492 93.4502 255.254 94.9269 249.573 97.7221L253.203 106.722C257.165 104.369 261.658 103.058 266.263 102.912C271.803 102.912 275.003 105.252 275.003 109.752V110.702L264.233 111.132C256.363 111.482 247.623 114.672 247.623 124.192C247.623 133.712 255.583 137.772 263.113 137.772C267.781 137.838 272.24 135.844 275.303 132.322ZM261.463 123.672C261.463 120.482 263.973 118.662 268.213 118.482L275.093 118.112V125.112C273.54 127.525 270.873 128.988 268.003 129.002C264.153 129.002 261.463 126.862 261.463 123.672Z" fill="white"/>
<path d="M310.593 137.772C304.193 137.772 297.453 135.772 292.593 131.202L297.783 122.982C301.243 125.922 306.953 128.172 310.413 128.172C313.873 128.172 316.293 127.312 316.293 124.542C316.293 121.772 310.073 120.392 308.513 119.872C301.423 118.052 295.193 115.542 295.193 106.722C295.193 98.4221 302.453 93.3121 311.363 93.3121C320.273 93.3121 325.293 96.6021 327.713 98.5921L323.213 106.722C320.793 104.822 315.953 102.572 312.493 102.572C309.203 102.572 307.383 103.432 307.383 105.682C307.383 107.932 310.673 108.972 313.613 109.832C320.973 112.002 328.663 114.252 328.663 123.672C328.673 133.882 319.423 137.772 310.593 137.772Z" fill="white"/>
<path fill-rule="evenodd" clip-rule="evenodd" d="M375.383 118.832H405.743C405.743 118.832 405.923 116.322 405.913 114.252C405.913 101.792 397.163 93.4021 384.543 93.4021C371.923 93.4021 361.543 101.442 361.543 115.542C361.543 129.642 371.053 137.772 384.293 137.772C396.171 137.772 401.916 133.008 403.969 131.305C404.204 131.11 404.391 130.955 404.533 130.852L399.083 123.672C395.293 126.223 390.851 127.636 386.283 127.742C380.663 127.742 375.993 124.972 375.383 118.832ZM378.104 104.846C379.759 103.238 381.986 102.355 384.293 102.392C386.587 102.365 388.797 103.255 390.432 104.864C392.067 106.473 392.993 108.668 393.003 110.962H375.473C375.502 108.655 376.449 106.454 378.104 104.846Z" fill="white"/>
<path d="M438.093 106.892H437.493C435.926 106.179 434.215 105.837 432.493 105.892C425.663 105.892 423.933 112.302 423.933 117.892V136.832H410.073V94.1821H423.913L423.823 100.182H424.003C426.433 95.5121 430.003 93.3521 434.563 93.3521C436.044 93.2862 437.52 93.5527 438.883 94.1321L438.093 106.892Z" fill="white"/>
<path d="M515.683 106.892H515.083C513.516 106.179 511.805 105.837 510.083 105.892C503.253 105.892 501.523 112.302 501.523 117.892V136.832H487.663V94.1821H501.503L501.413 100.182H501.583C504.003 95.5121 507.583 93.3521 512.143 93.3521C513.624 93.2862 515.1 93.5527 516.463 94.1321L515.683 106.892Z" fill="white"/>
<path fill-rule="evenodd" clip-rule="evenodd" d="M544.663 132.322L544.923 136.822L558.133 136.772V112.772C558.133 98.9321 550.453 93.4021 537.133 93.4021C530.803 93.4516 524.565 94.9282 518.883 97.7221L522.513 106.722C526.479 104.371 530.975 103.06 535.583 102.912C541.113 102.912 544.313 105.252 544.313 109.752V110.702L533.593 111.132C525.723 111.482 516.983 114.672 516.983 124.192C516.983 133.712 524.943 137.772 532.463 137.772C537.133 137.834 541.594 135.841 544.663 132.322ZM530.823 123.672C530.823 120.482 533.333 118.662 537.573 118.482L544.403 118.062V125.062C542.848 127.472 540.182 128.935 537.313 128.952C533.503 128.952 530.823 126.862 530.823 123.672Z" fill="white"/>
<path fill-rule="evenodd" clip-rule="evenodd" d="M563.133 82.0721C563.133 86.3921 566.333 89.2521 571.003 89.2521C575.623 89.2521 578.883 86.3121 578.883 82.0721C578.883 77.8321 575.673 74.8921 571.003 74.8921C566.333 74.8921 563.133 77.7521 563.133 82.0721ZM564.003 94.1821V136.822H577.843V94.1821H564.003Z" fill="white"/>
<path d="M612.003 136.822V114.592C612.003 108.972 611.143 104.732 605.433 104.732C599.433 104.732 597.813 109.572 597.813 115.732V136.832H584.003V94.1821H597.843L597.763 100.322H597.933C600.471 95.9172 605.222 93.2599 610.303 93.4021C622.673 93.4021 625.873 101.402 625.873 111.652V136.822H612.003Z" fill="white"/>
<path fill-rule="evenodd" clip-rule="evenodd" d="M630.723 82.0721C630.723 86.3921 633.923 89.2521 638.593 89.2521C643.273 89.2521 646.473 86.3121 646.473 82.0721C646.473 77.8321 643.263 74.8921 638.593 74.8921C633.923 74.8921 630.723 77.7521 630.723 82.0721ZM631.673 94.1821V136.822H645.523V94.1821H631.673Z" fill="white"/>
<path d="M679.593 136.822V114.592C679.593 108.972 678.733 104.732 673.023 104.732C667.023 104.732 665.413 109.572 665.413 115.732V136.832H651.573V94.1821H665.413L665.323 100.322H665.503C668.038 95.914 672.79 93.2555 677.873 93.4021C690.243 93.4021 693.443 101.402 693.443 111.652V136.822H679.593Z" fill="white"/>
<path fill-rule="evenodd" clip-rule="evenodd" d="M719.043 153.342C728.813 153.342 734.523 150.492 738.673 146.602C742.833 142.702 745.163 137.342 745.163 128.192V94.1921H731.323L731.503 99.6421H731.323C729.073 96.7021 725.013 93.4121 717.833 93.4121C707.363 93.4121 697.673 100.682 697.673 114.412C697.673 128.142 707.363 135.412 717.833 135.412C724.493 135.412 728.643 132.732 731.243 129.352H731.413V130.742C731.413 139.132 727.003 142.592 718.783 142.592C713.527 142.362 708.436 140.684 704.073 137.742L698.373 147.002C704.486 151.11 711.678 153.316 719.043 153.342ZM711.813 114.502C711.813 108.712 715.673 104.212 721.813 104.212C728.003 104.212 731.753 108.612 731.753 114.502C731.753 120.392 727.913 124.882 721.813 124.882C715.713 124.882 711.813 120.292 711.813 114.502Z" fill="white"/>
<path fill-rule="evenodd" clip-rule="evenodd" d="M21.9233 64.8221L107.773 36.2321L79.1833 122.082L61.9233 82.0821L21.9233 64.8221ZM93.5633 50.4421L68.7733 75.2321L72.9133 84.8421C73.7364 86.7431 75.6463 87.9397 77.7159 87.8509C79.7855 87.7622 81.586 86.4065 82.2433 84.4421L93.5633 50.4421Z" fill="white"/>
<path fill-rule="evenodd" clip-rule="evenodd" d="M44.4479 5.48232C71.353 -5.66163 102.322 0.49926 122.913 21.0921C151.029 49.2095 151.029 94.7947 122.913 122.912C102.322 143.505 71.353 149.666 44.4479 138.522C17.5428 127.378 0 101.124 0 72.0021C0 42.8804 17.5428 16.6263 44.4479 5.48232ZM114.429 114.423C137.86 90.9927 137.862 53.0046 114.433 29.5721C90.9851 6.17445 53.0216 6.17445 29.5734 29.5721C6.14484 53.0046 6.14698 90.9927 29.5782 114.423C53.0093 137.852 90.9974 137.852 114.429 114.423Z" fill="white"/>
</svg>
