<?xml version="1.0" encoding="UTF-8"?>
<svg width="84px" height="84px" viewBox="0 0 84 84" version="1.1" xmlns="http://www.w3.org/2000/svg" xmlns:xlink="http://www.w3.org/1999/xlink">
    <title>icon-training</title>
    <g id="icon-training" stroke="none" stroke-width="1" fill="none" fill-rule="evenodd">
        <g id="laptop-71" transform="translate(8.000000, 18.000000)" fill-rule="nonzero">
            <path d="M58.5,0 L10.5,0 C8.01855,0 6,2.018565 6,4.5 L6,40.5 C6,41.3283 6.67095,42 7.5,42 L61.5,42 C62.32905,42 63,41.3283 63,40.5 L63,4.5 C63,2.018565 60.98145,0 58.5,0 Z" id="Path" fill="#003561"></path>
            <path d="M0,37.5 L0,40.5 C0,44.635215 3.3648,48 7.5,48 L61.5,48 C65.6352,48 69,44.635215 69,40.5 L69,37.5 L0,37.5 Z" id="Path" fill="#E6E6E6"></path>
            <rect id="Rectangle" fill="#FFFFFF" x="10.5" y="4.5" width="48" height="28.5"></rect>
            <path d="M39,42 L30,42 C28.34325,42 27,40.65675 27,39 L27,37.5 L42,37.5 L42,39 C42,40.65675 40.65675,42 39,42 Z" id="Path" fill="#B3B3B3"></path>
            <path d="M50.884365,11.42688 C50.732295,11.059755 50.439975,10.76751 50.072835,10.615545 C49.889655,10.539735 49.695195,10.5 49.5000075,10.5 L40.5000075,10.5 C39.671625,10.5 39.0000075,11.170905 39.0000075,12 C39.0000075,12.829095 39.671625,13.5 40.5000075,13.5 L45.87891,13.5 L34.5000075,24.87891 L26.560545,16.939455 C25.974615,16.353525 25.025385,16.353525 24.439455,16.939455 L18.439455,22.939455 C17.853525,23.525385 17.853525,24.474615 18.439455,25.060545 C19.025385,25.646475 19.974615,25.646475 20.560545,25.060545 L25.5000075,20.12109 L33.439455,28.060545 C33.73242,28.35351 34.11621,28.5 34.5000075,28.5 C34.88379,28.5 35.26758,28.35351 35.560545,28.060545 L48.0000075,15.62109 L48.0000075,21 C48.0000075,21.829095 48.671625,22.5 49.5000075,22.5 C50.328375,22.5 51.0000075,21.829095 51.0000075,21 L51.0000075,12 C51.0000075,11.804715 50.960175,11.610165 50.884365,11.42688 Z" id="Path" fill="#00D6E6"></path>
        </g>
    </g>
</svg>