<?xml version="1.0" encoding="UTF-8"?>
<svg width="84px" height="84px" viewBox="0 0 84 84" version="1.1" xmlns="http://www.w3.org/2000/svg" xmlns:xlink="http://www.w3.org/1999/xlink">
    <title>icon-user</title>
    <g id="icon-user" stroke="none" stroke-width="1" fill="none" fill-rule="evenodd">
        <g id="delete-28" transform="translate(18.000000, 18.000000)">
            <rect id="Rectangle" fill="#EAC3A2" fill-rule="nonzero" x="17.4545455" y="21.8181818" width="13.0909091" height="16.3636364"></rect>
            <path d="M24,28.3636364 C17.3831676,28.3636364 12,22.9804688 12,16.3636364 L12,12 C12,5.3831676 17.3831676,0 24,0 C30.6168324,0 36,5.3831676 36,12 L36,16.3636364 C36,22.9804688 30.6168324,28.3636364 24,28.3636364 Z" id="Path" fill="#F1D9C5" fill-rule="nonzero"></path>
            <path d="M35.9994673,39.0508701 L30.5454545,32.7272727 L30.5256125,32.7272727 C28.7044123,34.0913086 26.4504839,34.9090909 24,34.9090909 C21.5495161,34.9090909 19.2956543,34.0913086 17.474454,32.7272727 L17.4545455,32.7272727 L17.3182484,32.795388 L3.00392836,39.0508701 C1.34492629,39.7759011 0,41.8360041 0,43.6464178 L0,46.9058949 C0,47.510143 0.490722655,48 1.09277345,48 L37.9072932,48 C38.5108088,48 39,47.5223278 39,46.9058949 L39,43.6464178 C39,41.8334073 37.659335,39.7770996 35.9994673,39.0508701 Z" id="Path" fill="#0073B9"></path>
        </g>
        <g id="magnifier" transform="translate(44.000000, 42.000000)" fill-rule="nonzero">
            <circle id="Oval" fill="#FFFFFF" cx="13.7199988" cy="13.7199988" r="13"></circle>
            <path d="M26.990586,30.5199978 C26.8099789,30.5199978 26.6293718,30.4511187 26.4915058,30.3133676 L18.7267974,22.5551239 C18.4517502,22.2803057 18.4510655,21.8350178 18.7247291,21.5595155 L21.5386101,18.728349 C21.6709631,18.595415 21.8508784,18.5203434 22.038382,18.5199978 C22.0390738,18.5199978 22.0390738,18.5199978 22.0397585,18.5199978 C22.227255,18.5199978 22.4064857,18.5943853 22.5388386,18.7266281 L30.3131965,26.4948588 C30.5889284,26.770361 30.5889284,27.2166858 30.3131965,27.492188 L27.4896662,30.3133676 C27.3518002,30.4511187 27.1711931,30.5199978 26.990586,30.5199978 Z" id="Path" fill="#F58331"></path>
            <path d="M13.7199988,24.4981794 C7.65462198,24.4981794 2.71999882,19.6630649 2.71999882,13.7199988 C2.71999882,7.77693276 7.65462198,2.94181828 13.7199988,2.94181828 C19.7853757,2.94181828 24.7199988,7.77693276 24.7199988,13.7199988 C24.7199988,19.6630649 19.7853757,24.4981794 13.7199988,24.4981794 Z M13.7199988,6.51999925 C9.74982588,6.51999925 6.51999925,9.74982588 6.51999925,13.7199988 C6.51999925,17.6901718 9.74982588,20.9199984 13.7199988,20.9199984 C17.6901718,20.9199984 20.9199984,17.6901718 20.9199984,13.7199988 C20.9199984,9.74982588 17.6901718,6.51999925 13.7199988,6.51999925 Z" id="Shape" fill="#00B6C7"></path>
        </g>
    </g>
</svg>